<svg xmlns="http://www.w3.org/2000/svg" width="914.038" height="847.774" viewBox="0 0 914.038 847.774">
  <path id="Path_191" data-name="Path 191" d="M915.75,505.742c.107,101.327-34.131,198.756-95.517,271.806q-5.551,6.649-11.4,12.977-8.914,9.7-18.427,18.647c-59.327,55.914-133.391,87.334-210.243,89.191q-3.841.1-7.711.1c-61.291,0-138.381-37.449-208.34-89.29q-8.682-6.433-17.209-13.165-3.986-3.117-7.933-6.323a734.785,734.785,0,0,1-76.645-71.627,545.763,545.763,0,0,1-44.207-54.074C164.361,588.135,152.5,519.791,229.14,505.742q13.61-2.487,26.418-5.317,18.553-4.079,35.511-8.81,22.843-6.35,42.922-13.773,6.754-2.487,13.2-5.074c63.523-25.523,106.04-58.8,134.98-94.917q7.363-9.169,13.576-18.559a267.173,267.173,0,0,0,17.229-29.977,303.31,303.31,0,0,0,17.789-45.375l.261-.862c23.026-75.982,16.021-146.459,41.424-170.047C681.041,12.192,816.233,155.8,879.689,325.15q4.8,12.8,9.025,25.755,1.9,5.787,3.662,11.6,4.638,15.138,8.416,30.353,1.449,5.8,2.764,11.6c.937,4.167,1.836,8.323,2.667,12.479C912.4,447.357,915.75,477.368,915.75,505.742Z" transform="matrix(0.139, 0.99, -0.99, 0.139, 865.401, -184.107)" fill="#f6f4ff"/>
</svg>
